<?xml version="1.0" standalone="no"?>
<!DOCTYPE svg PUBLIC "-//W3C//DTD SVG 20010904//EN"
 "http://www.w3.org/TR/2001/REC-SVG-20010904/DTD/svg10.dtd">
<svg version="1.0" xmlns="http://www.w3.org/2000/svg"
 width="700.000000pt" height="700.000000pt" viewBox="0 0 700.000000 700.000000"
 preserveAspectRatio="xMidYMid meet">
<metadata>
Created by potrace 1.14, written by Peter Selinger 2001-2017
</metadata>
<g transform="translate(0.000000,700.000000) scale(0.100000,-0.100000)"
fill="#000000" stroke="none">
<path d="M849 6885 c-2 -2 -23 -6 -47 -10 -155 -23 -328 -116 -451 -244 -96
-101 -157 -206 -203 -351 l-23 -75 0 -2690 c0 -1479 4 -2712 8 -2739 43 -267
258 -522 523 -622 150 -57 -14 -54 2894 -51 l2685 2 69 22 c162 52 281 127
388 242 101 109 161 219 200 365 l21 81 1 2640 c1 1452 -2 2672 -7 2710 -35
308 -278 598 -572 685 -134 39 -62 38 -2826 39 -1461 0 -2658 -2 -2660 -4z
m5364 -293 c156 -39 304 -161 370 -306 45 -99 47 -130 47 -625 l0 -471 -3114
0 -3114 0 1 468 c0 513 2 533 60 651 21 45 56 90 105 139 40 39 77 72 83 72 6
0 23 8 37 19 31 21 110 48 173 59 24 4 1227 7 2674 6 1978 0 2642 -4 2678 -12z
m415 -3734 c-3 -2000 -3 -2054 -22 -2103 -66 -171 -196 -296 -361 -348 l-70
-22 -2660 0 -2660 0 -69 24 c-96 32 -162 73 -226 140 -71 72 -116 150 -139
242 -18 69 -18 163 -18 2096 l0 2023 3113 0 3114 0 -2 -2052z"/>
<path d="M2169 5987 c-47 -31 -73 -86 -64 -137 14 -81 82 -127 175 -118 55 6
93 30 115 75 34 70 6 156 -62 188 -47 23 -124 19 -164 -8z"/>
<path d="M4680 5972 c-39 -39 -47 -63 -40 -127 3 -31 49 -86 86 -101 128 -54
248 67 189 189 -24 50 -61 71 -132 75 -62 4 -64 4 -103 -36z"/>
<path d="M1953 4044 c-35 -18 -70 -66 -76 -105 -5 -32 11 -90 31 -113 45 -50
33 -49 690 -49 336 0 612 -4 612 -8 0 -4 -6 -14 -13 -21 -7 -7 -42 -49 -77
-93 -36 -44 -73 -89 -82 -100 -49 -58 -609 -747 -628 -773 -47 -63 -19 -171
53 -205 23 -11 62 -16 132 -15 369 2 645 -107 741 -294 57 -111 62 -265 14
-421 -50 -161 -173 -273 -355 -323 -67 -18 -283 -27 -343 -14 -20 5 -54 11
-76 14 -46 8 -168 48 -233 78 -127 58 -250 158 -309 252 -52 83 -143 107 -215
55 -36 -26 -62 -82 -56 -125 12 -87 156 -253 302 -349 153 -99 354 -176 523
-200 20 -3 53 -8 72 -11 46 -7 233 -7 268 0 15 3 45 8 67 11 160 23 339 114
450 230 138 144 213 337 219 563 12 428 -260 709 -768 795 l-78 13 207 254
c113 140 214 264 223 275 103 121 378 465 392 489 37 66 10 153 -61 188 -31
17 -91 18 -814 18 -694 0 -784 -2 -812 -16z"/>
<path d="M4710 4040 c-25 -10 -81 -32 -125 -48 -44 -17 -132 -50 -195 -75 -63
-24 -148 -56 -188 -72 -87 -33 -128 -64 -138 -108 -18 -79 11 -145 76 -171 57
-23 67 -21 199 29 65 25 121 45 125 45 3 0 25 9 49 20 38 18 124 50 133 50 2
0 4 -525 4 -1167 0 -1305 -5 -1210 70 -1261 67 -45 171 -10 202 68 15 37 13
2593 -1 2629 -16 38 -86 81 -131 80 -19 0 -55 -9 -80 -19z"/>
</g>
</svg>
